<svg xmlns="http://www.w3.org/2000/svg" xmlns:xlink="http://www.w3.org/1999/xlink" viewBox="0 0 75 93.75" version="1.1" x="0px" y="0px"><g><path style="" d="M 43.722656 54.875 L 31.265625 54.875 C 30.308594 54.875 29.355469 55.324219 28.714844 56.082031 C 28.109375 56.796875 27.859375 57.679688 28.003906 58.574219 C 28.578125 62.050781 29.648438 68.515625 35.464844 73.050781 C 36.070312 73.523438 36.75 73.800781 37.4375 73.859375 C 37.457031 73.859375 37.476562 73.859375 37.5 73.859375 C 37.523438 73.859375 37.542969 73.859375 37.5625 73.859375 C 38.25 73.800781 38.929688 73.523438 39.535156 73.050781 C 45.355469 68.511719 46.417969 62.046875 46.992188 58.578125 C 47.140625 57.6875 46.890625 56.800781 46.28125 56.082031 C 45.648438 55.328125 44.691406 54.875 43.722656 54.875 Z M 43.722656 54.875 " stroke="none" fill-rule="nonzero" fill="rgb(0%,0%,0%)" fill-opacity="1"/><path style="" d="M 48.757812 2.40625 C 48.0625 1.824219 47.191406 1.589844 46.339844 1.75 C 44.449219 2.109375 41.335938 3.539062 39.398438 4.433594 L 39.398438 2.417969 C 39.398438 1.390625 38.5625 0.554688 37.535156 0.554688 C 36.507812 0.554688 35.675781 1.390625 35.675781 2.417969 L 35.675781 4.46875 C 33.75 3.578125 30.574219 2.113281 28.664062 1.75 C 27.800781 1.589844 26.941406 1.824219 26.238281 2.40625 C 25.433594 3.074219 24.933594 4.148438 24.933594 5.210938 L 24.933594 19.113281 C 24.933594 21.15625 26.699219 21.953125 27.875 22.480469 L 28.597656 22.808594 C 29.289062 23.121094 30.105469 23.492188 30.941406 23.851562 L 28.132812 26.980469 C 28.003906 27.125 27.933594 27.308594 27.933594 27.5 L 27.933594 49.777344 C 27.933594 51.699219 29.496094 53.261719 31.417969 53.261719 L 43.546875 53.261719 C 45.464844 53.261719 47.03125 51.699219 47.03125 49.78125 L 47.03125 27.503906 C 47.03125 27.3125 46.960938 27.125 46.832031 26.984375 L 44.046875 23.851562 C 44.90625 23.484375 45.742188 23.105469 46.441406 22.789062 L 47.136719 22.476562 C 48.300781 21.949219 50.066406 21.15625 50.066406 19.113281 L 50.066406 5.210938 C 50.066406 4.148438 49.566406 3.070312 48.757812 2.40625 Z M 48.757812 2.40625 " stroke="none" fill-rule="nonzero" fill="rgb(0%,0%,0%)" fill-opacity="1"/></g></svg>